<svg width="32" height="32" viewBox="0 0 32 32" fill="none" xmlns="http://www.w3.org/2000/svg">
<path d="M32 16C32 24.8366 24.8366 32 16 32C7.16344 32 0 24.8366 0 16C0 7.16344 7.16344 0 16 0C24.8366 0 32 7.16344 32 16Z" fill="white"/>
<path d="M10.4583 30C10.225 30 10.0208 29.9125 9.84583 29.7375C9.67083 29.5625 9.58333 29.3583 9.58333 29.125C9.58333 28.8917 9.67083 28.6875 9.84583 28.5125C10.0208 28.3375 10.225 28.25 10.4583 28.25C10.6917 28.25 10.8958 28.3375 11.0708 28.5125C11.2458 28.6875 11.3333 28.8917 11.3333 29.125C11.3333 29.3583 11.2458 29.5625 11.0708 29.7375C10.8958 29.9125 10.6917 30 10.4583 30ZM20.375 30C20.1417 30 19.9375 29.9125 19.7625 29.7375C19.5875 29.5625 19.5 29.3583 19.5 29.125C19.5 28.8917 19.5875 28.6875 19.7625 28.5125C19.9375 28.3375 20.1417 28.25 20.375 28.25C20.6083 28.25 20.8125 28.3375 20.9875 28.5125C21.1625 28.6875 21.25 28.8917 21.25 29.125C21.25 29.3583 21.1625 29.5625 20.9875 29.7375C20.8125 29.9125 20.6083 30 20.375 30ZM9.875 27.6667C9 27.6667 8.19306 27.4771 7.45417 27.0979C6.71528 26.7188 6.10278 26.2083 5.61667 25.5667C5.55833 25.4694 5.51458 25.3819 5.48542 25.3042C5.45625 25.2264 5.44167 25.1389 5.44167 25.0417C5.44167 24.8083 5.51944 24.6042 5.675 24.4292C5.83056 24.2542 6.04444 24.1667 6.31667 24.1667C6.47222 24.1667 6.60347 24.1958 6.71042 24.2542C6.81736 24.3125 6.91944 24.4 7.01667 24.5167C7.25 24.8472 7.54653 25.1243 7.90625 25.3479C8.26597 25.5715 8.65 25.7319 9.05833 25.8292L12.7042 21.425L11.1583 16.5833C11.0611 16.2528 11.0319 15.9222 11.0708 15.5917C11.1097 15.2611 11.2167 14.95 11.3917 14.6583L14.1917 10.1667H11.45L9.23333 13.725L7.25 12.5L10.1667 7.83333H16.8167C17.3417 7.83333 17.7646 7.97917 18.0854 8.27083C18.4063 8.5625 18.625 8.83472 18.7417 9.0875L19.3542 10.4875C19.7431 11.4208 20.3701 12.184 21.2354 12.7771C22.1007 13.3701 23.0778 13.6667 24.1667 13.6667V16C22.8056 16 21.5611 15.6743 20.4333 15.0229C19.3056 14.3715 18.4014 13.5111 17.7208 12.4417L15.6208 15.7958L20.6667 18.9167V25.9167H21.0167C21.5806 25.9167 22.1056 25.7903 22.5917 25.5375C23.0778 25.2847 23.4861 24.9444 23.8167 24.5167C23.9139 24.4 24.016 24.3125 24.1229 24.2542C24.2299 24.1958 24.3611 24.1667 24.5167 24.1667C24.7694 24.1667 24.9785 24.2542 25.1438 24.4292C25.309 24.6042 25.3917 24.8083 25.3917 25.0417C25.3917 25.1389 25.3771 25.2264 25.3479 25.3042C25.3188 25.3819 25.275 25.4694 25.2167 25.5667C24.7306 26.2083 24.1278 26.7188 23.4083 27.0979C22.6889 27.4771 21.8917 27.6667 21.0167 27.6667H9.875ZM12.0333 25.9167H18.3333V20.55L14.25 17.9833L15.4167 21.8333L12.0333 25.9167ZM19.5 7.83333C18.8583 7.83333 18.309 7.60486 17.8521 7.14792C17.3951 6.69097 17.1667 6.14167 17.1667 5.5C17.1667 4.85833 17.3951 4.30903 17.8521 3.85208C18.309 3.39514 18.8583 3.16667 19.5 3.16667C20.1417 3.16667 20.691 3.39514 21.1479 3.85208C21.6049 4.30903 21.8333 4.85833 21.8333 5.5C21.8333 6.14167 21.6049 6.69097 21.1479 7.14792C20.691 7.60486 20.1417 7.83333 19.5 7.83333Z" fill="url(#paint0_linear_81_180)"/>
<defs>
<linearGradient id="paint0_linear_81_180" x1="15.4167" y1="3.16666" x2="15.4167" y2="30" gradientUnits="userSpaceOnUse">
<stop stop-color="#FFBB00"/>
<stop offset="1" stop-color="#E59317"/>
</linearGradient>
</defs>
</svg>
